<svg width="74" height="86" viewBox="0 0 74 86" fill="none" xmlns="http://www.w3.org/2000/svg">
<path d="M53.983 24.0348L29.6 52.0423L16.317 36.8273L11.1 42.8198L29.6 64.0698L59.2 30.0698L53.983 24.0348ZM37 0.319824C16.576 0.319824 0 19.3598 0 42.8198C0 66.2798 16.576 85.3198 37 85.3198C57.424 85.3198 74 66.2798 74 42.8198C74 19.3598 57.424 0.319824 37 0.319824ZM37 76.8198C20.646 76.8198 7.4 61.6048 7.4 42.8198C7.4 24.0348 20.646 8.81983 37 8.81983C53.354 8.81983 66.6 24.0348 66.6 42.8198C66.6 61.6048 53.354 76.8198 37 76.8198Z" fill="black"/>
</svg>