<svg width="28" height="40" viewBox="0 0 28 40" fill="none" xmlns="http://www.w3.org/2000/svg">
<path d="M8.94195 10H1.33615C0.513906 8.94 0 7.54 0 6C0 2.68 2.29544 0 5.13905 0C7.98266 0 10.2781 2.68 10.2781 6C10.2781 7.54 9.7642 8.94 8.94195 10ZM20.5562 0C24.342 0 27.4083 3.58 27.4083 8V40H23.9822V8C23.9822 5.8 22.4405 4 20.5562 4C18.6719 4 17.1302 5.8 17.1302 8V32C17.1302 36.42 14.0639 40 10.2781 40C6.49234 40 3.42604 36.42 3.42604 32H1.71302L0 12H10.2781L8.56509 32H6.85207C6.85207 34.2 8.39379 36 10.2781 36C12.1624 36 13.7041 34.2 13.7041 32V8C13.7041 3.58 16.7704 0 20.5562 0Z" fill="#F4D18D" fill-opacity="0.9"/>
</svg>